<svg xmlns="http://www.w3.org/2000/svg" viewBox="0 0 1100 640" font-family="-apple-system,Segoe UI,sans-serif">
  <defs>
    <linearGradient id="bg" x1="0" y1="0" x2="0" y2="1">
      <stop offset="0" stop-color="#0f172a"/>
      <stop offset="1" stop-color="#0b1224"/>
    </linearGradient>
  </defs>
  <rect width="1100" height="640" fill="url(#bg)"/>

  <!-- header bar -->
  <rect x="0" y="0" width="1100" height="56" fill="#0f172a"/>
  <line x1="0" y1="56" x2="1100" y2="56" stroke="#334155"/>
  <text x="24" y="35" font-size="16" font-weight="700" fill="#e2e8f0">App Health Dashboard</text>
  <text x="1076" y="35" font-size="12" fill="#94a3b8" text-anchor="end">Generated 2026-04-25 06:47 UTC</text>

  <!-- KPI cards -->
  <g font-size="12" fill="#94a3b8">
    <rect x="20"  y="80" width="245" height="92" rx="10" fill="#1e293b"/>
    <text x="36"  y="104" letter-spacing="0.7">ERRORS (24H)</text>
    <text x="36"  y="156" font-size="36" font-weight="700" fill="#e2e8f0">130</text>

    <rect x="280" y="80" width="245" height="92" rx="10" fill="#1e293b"/>
    <text x="296" y="104" letter-spacing="0.7">OPEN TICKETS</text>
    <text x="296" y="156" font-size="36" font-weight="700" fill="#fca5a5">5</text>

    <rect x="540" y="80" width="245" height="92" rx="10" fill="#1e293b"/>
    <text x="556" y="104" letter-spacing="0.7">CLOSED TICKETS</text>
    <text x="556" y="156" font-size="36" font-weight="700" fill="#86efac">25</text>

    <rect x="800" y="80" width="280" height="92" rx="10" fill="#1e293b"/>
    <text x="816" y="104" letter-spacing="0.7">MTTF (HOURS)</text>
    <text x="816" y="156" font-size="36" font-weight="700" fill="#e2e8f0">40.0</text>
  </g>

  <!-- Bugs by severity bar chart -->
  <rect x="20" y="190" width="525" height="200" rx="10" fill="#1e293b"/>
  <text x="36" y="214" font-size="12" fill="#94a3b8" letter-spacing="0.7">OPEN BUGS BY SEVERITY</text>
  <g>
    <rect x="60"  y="350" width="80" height="20"  fill="#ef4444"/>
    <rect x="170" y="290" width="80" height="80"  fill="#f97316"/>
    <rect x="280" y="270" width="80" height="100" fill="#eab308"/>
    <rect x="390" y="240" width="80" height="130" fill="#22c55e"/>
    <g font-size="11" fill="#94a3b8" text-anchor="middle">
      <text x="100" y="384">Critical</text>
      <text x="210" y="384">High</text>
      <text x="320" y="384">Medium</text>
      <text x="430" y="384">Low</text>
    </g>
    <g font-size="12" font-weight="600" fill="#e2e8f0" text-anchor="middle">
      <text x="100" y="343">0</text>
      <text x="210" y="283">15</text>
      <text x="320" y="263">28</text>
      <text x="430" y="233">82</text>
    </g>
  </g>

  <!-- Top failing endpoints (horizontal bars) -->
  <rect x="560" y="190" width="520" height="200" rx="10" fill="#1e293b"/>
  <text x="576" y="214" font-size="12" fill="#94a3b8" letter-spacing="0.7">TOP FAILING ENDPOINTS (24H)</text>
  <g font-size="12" fill="#cbd5e1">
    <text x="576" y="248">/api/checkout</text>  <rect x="700" y="237" width="280" height="14" fill="#38bdf8"/><text x="990" y="248">28</text>
    <text x="576" y="278">/api/upload</text>    <rect x="700" y="267" width="220" height="14" fill="#38bdf8"/><text x="930" y="278">22</text>
    <text x="576" y="308">/api/messages</text>  <rect x="700" y="297" width="180" height="14" fill="#38bdf8"/><text x="890" y="308">18</text>
    <text x="576" y="338">/api/login</text>     <rect x="700" y="327" width="120" height="14" fill="#38bdf8"/><text x="830" y="338">12</text>
    <text x="576" y="368">/api/search</text>    <rect x="700" y="357" width="80"  height="14" fill="#38bdf8"/><text x="790" y="368">8</text>
  </g>

  <!-- Top affected users (horizontal bars) -->
  <rect x="20" y="410" width="525" height="210" rx="10" fill="#1e293b"/>
  <text x="36" y="434" font-size="12" fill="#94a3b8" letter-spacing="0.7">TOP AFFECTED USERS (24H)</text>
  <g font-size="12" fill="#cbd5e1">
    <text x="36" y="468">u_3331</text>     <rect x="120" y="457" width="320" height="14" fill="#a78bfa"/><text x="450" y="468">25</text>
    <text x="36" y="498">u_1042</text>     <rect x="120" y="487" width="220" height="14" fill="#a78bfa"/><text x="350" y="498">18</text>
    <text x="36" y="528">u_6670</text>     <rect x="120" y="517" width="160" height="14" fill="#a78bfa"/><text x="290" y="528">14</text>
    <text x="36" y="558">u_4408</text>     <rect x="120" y="547" width="90"  height="14" fill="#a78bfa"/><text x="220" y="558">9</text>
    <text x="36" y="588">u_5519</text>     <rect x="120" y="577" width="50"  height="14" fill="#a78bfa"/><text x="180" y="588">5</text>
  </g>

  <!-- Recent events feed -->
  <rect x="560" y="410" width="520" height="210" rx="10" fill="#1e293b"/>
  <text x="576" y="434" font-size="12" fill="#94a3b8" letter-spacing="0.7">RECENT EVENTS</text>
  <g font-size="12" fill="#cbd5e1">
    <text x="576" y="462"><tspan fill="#94a3b8">06:55</tspan> — Ticket #TKT-0029 (High): Checkout latency above SLO</text>
    <text x="576" y="490"><tspan fill="#94a3b8">06:54</tspan> — TimeoutError on /api/checkout (user u_3331)</text>
    <text x="576" y="518"><tspan fill="#94a3b8">06:52</tspan> — DatabaseError on /api/search (user u_1042)</text>
    <text x="576" y="546"><tspan fill="#94a3b8">06:51</tspan> — Ticket #TKT-0028 (Medium): Notifications not delivering</text>
    <text x="576" y="574"><tspan fill="#94a3b8">06:48</tspan> — ValidationError on /api/profile (user u_6670)</text>
    <text x="576" y="602"><tspan fill="#94a3b8">06:47</tspan> — RateLimitExceeded on /api/upload (user u_4408)</text>
  </g>
</svg>
